<svg width="40" height="34" viewBox="0 0 40 34" fill="none" xmlns="http://www.w3.org/2000/svg">
<path d="M36.2137 2.77951L35.3348 2.9421C33.8044 3.22544 32.2318 2.82692 31.0203 1.84951L30.3248 1.28803C30.2889 1.25914 30.2389 1.25544 30.1992 1.27914C30.1566 1.30321 30.1389 1.34877 30.147 1.39396L30.3096 2.27284C30.5929 3.80358 30.1944 5.37618 29.2166 6.58729L28.6555 7.28284C28.6266 7.31877 28.6229 7.36877 28.6466 7.40877C28.6703 7.4484 28.7163 7.46914 28.7614 7.46062L29.6403 7.29803C31.1711 7.01507 32.7437 7.41358 33.9548 8.39099L34.6503 8.9521C34.6863 8.98099 34.7363 8.98469 34.7759 8.96099C34.7777 8.95988 34.7796 8.95877 34.7814 8.95766C34.8174 8.93321 34.8359 8.88951 34.8281 8.84618L34.6655 7.96729C34.3822 6.43692 34.7803 4.86396 35.7585 3.65284L36.32 2.95729C36.3489 2.92136 36.3526 2.87136 36.3289 2.83136C36.3051 2.79173 36.2592 2.77099 36.214 2.77951H36.2137ZM39.2418 9.79729C38.5252 9.62321 37.914 9.15136 37.5648 8.5021L37.1548 7.73988C37.1237 7.68247 37.0581 7.65284 36.9948 7.66766C36.9314 7.68247 36.8855 7.73766 36.8829 7.80321L36.8496 8.66803C36.8211 9.40432 36.4796 10.0969 35.9122 10.5677L35.5755 10.8473C35.5337 10.8825 35.5148 10.938 35.527 10.9914C35.5392 11.0447 35.5807 11.0862 35.6337 11.0991L36.0592 11.2021C36.7755 11.3758 37.3866 11.8477 37.7363 12.4973L38.1463 13.2595C38.1774 13.3169 38.2429 13.3465 38.3063 13.3317C38.3255 13.3273 38.3433 13.3191 38.3585 13.308C38.3937 13.2825 38.4163 13.2417 38.4181 13.1962L38.4518 12.3317C38.4803 11.5951 38.8218 10.9025 39.3892 10.4317L39.7259 10.1521C39.7677 10.1169 39.7866 10.0614 39.7744 10.008C39.7622 9.95469 39.7207 9.91321 39.6677 9.90025L39.2422 9.79729H39.2418ZM35.1689 21.8143C34.9648 22.141 34.6389 22.3736 34.2637 22.4599L31.8666 23.0132C30.3426 27.5447 26.1496 30.9788 21.1522 32.1862C15.9592 33.4406 10.3537 32.1795 6.90441 28.5447C6.80663 28.5099 6.71219 28.4643 6.62256 28.4084C6.53737 28.3551 6.45811 28.2932 6.38589 28.2243C6.29219 28.2495 6.19589 28.2732 6.09626 28.2962C5.69145 28.3895 5.28737 28.4373 4.89478 28.4373C2.87515 28.4373 1.28404 27.1977 0.841446 25.2791C0.634409 24.3817 0.708112 23.6462 0.900335 23.064C0.614409 22.8451 0.418483 22.5269 0.353668 22.1702C0.0666309 20.5973 0.248483 19.3417 0.909223 18.3317C1.55478 17.3451 2.59626 16.6862 4.08996 16.3203C4.83478 13.9428 6.33811 11.9358 8.357 10.3765C8.71626 10.0888 9.16219 9.80136 9.46404 9.70099C7.59478 9.85914 6.47367 9.7584 5.33774 10.1465C5.22256 10.1899 5.10774 10.0606 5.16515 9.94544C6.37256 7.64507 9.16182 6.52395 11.1459 7.28581C9.79441 6.10692 8.74478 5.17247 8.74478 5.17247L10.5851 3.6484C10.5851 3.6484 11.764 5.38766 12.6411 6.65321C13.7626 4.13729 16.5514 3.43284 18.0326 4.81284C18.1185 4.8847 18.0611 5.04284 17.9463 5.05729C16.9689 5.20099 16.6092 6.2221 16.6814 6.89766L17.5292 6.79692C21.7792 6.25136 25.6681 7.33766 28.4285 9.84803C28.81 9.5721 29.2637 9.37025 29.7744 9.2521C30.0755 9.18284 30.3759 9.14729 30.667 9.14729C32.1766 9.14729 33.3696 10.088 33.7055 11.5447C33.8544 12.1891 33.8074 12.8288 33.5763 13.3999C33.6651 13.5391 33.7311 13.694 33.7689 13.8577L35.3526 20.7173C35.4392 21.0928 35.3733 21.4873 35.1692 21.8143H35.1689Z" fill="url(#paint0_linear_638_3670)"/>
<path d="M4.53636 17.7467C2.2071 18.2842 1.35414 19.5931 1.7834 21.946L4.66821 21.2804C4.53377 20.513 4.62562 20.2924 5.12636 20.1769C5.53266 20.0833 5.78562 20.2528 5.88896 20.6996L6.09525 21.5928C5.6534 21.5947 5.23784 21.648 4.77747 21.7542C2.7597 22.2199 1.87636 23.336 2.25784 24.9874C2.61414 26.5303 4.03636 27.3143 5.7697 26.9145C6.37896 26.7739 6.83747 26.5969 7.19266 26.3437L7.39266 27.2099L10.2908 26.541L8.79636 20.071C8.32414 18.0269 6.83859 17.2151 4.53636 17.7463V17.7467ZM6.00377 24.5935C5.46192 24.7186 5.21081 24.6198 5.12636 24.2541C5.04192 23.8887 5.22118 23.6762 5.76303 23.5511C6.29118 23.4293 6.54525 23.5415 6.6297 23.9072C6.71081 24.2592 6.53192 24.4714 6.00377 24.5935ZM32.2901 11.9138C32.5141 12.884 31.9464 13.6877 30.8478 13.9409C29.7619 14.1915 28.8993 13.718 28.6753 12.7478C28.4482 11.7646 29.016 10.9613 30.1019 10.7107C31.2004 10.4571 32.0634 10.9302 32.2904 11.9134L32.2901 11.9138ZM29.6193 14.8563L32.353 14.2255L33.9367 21.0813L31.203 21.712L29.6193 14.8563ZM13.6286 12.8248L8.51192 14.0053L11.3508 26.2952L15.0741 25.436L14.153 21.4485L14.7727 21.3056L18.0282 24.7545L22.2208 23.7873L18.6249 20.0374L18.7253 19.94C19.2656 19.4151 19.6241 18.8154 19.7997 18.1461L22.1527 17.6031L24.1708 26.3396L27.7856 25.5056L25.7675 16.769L28.9515 16.0342L28.1308 12.4809L19.2275 14.5354C18.2256 12.8392 16.2608 12.2177 13.6286 12.8248ZM14.5567 18.2405L13.489 18.487L12.8875 15.8825L13.9553 15.6359C14.9897 15.3972 15.7749 15.7492 15.9501 16.5077C16.1467 17.3591 15.639 17.9906 14.5567 18.2405Z" fill="white"/>
<defs>
<linearGradient id="paint0_linear_638_3670" x1="10.62" y1="3.9221" x2="29.86" y2="29.154" gradientUnits="userSpaceOnUse">
<stop stop-color="#B754D3"/>
<stop offset="0.57" stop-color="#E94180"/>
<stop offset="1" stop-color="#F3443A"/>
</linearGradient>
</defs>
</svg>
